<?xml version="1.0" encoding="UTF-8"?>
<svg width="78px" height="78px" viewBox="0 0 78 78" version="1.1" xmlns="http://www.w3.org/2000/svg" xmlns:xlink="http://www.w3.org/1999/xlink">
    <!-- Generator: Sketch 48.2 (47327) - http://www.bohemiancoding.com/sketch -->
    <title>icon_success</title>
    <desc>Created with Sketch.</desc>
    <defs></defs>
    <g id="Artboard-6" stroke="none" stroke-width="1" fill="none" fill-rule="evenodd" transform="translate(-149.000000, -220.000000)">
        <g id="icon_success" transform="translate(149.000000, 220.000000)" fill="#E3F0D9" fill-rule="nonzero">
            <path d="M54.62,23.74 L34.09,45.26 L22.93,35.46 C21.6763136,34.3747605 19.7802396,34.5113137 18.695,35.765 C17.6097605,37.0186864 17.7463136,38.9147605 19,40 L32.3,51.67 C33.5078849,52.7322827 35.3386281,52.652877 36.45,51.49 L59,27.88 C59.7732087,27.110908 60.0681461,25.9827919 59.7702933,24.933679 C59.4724404,23.8845661 58.6287189,23.0797258 57.5667307,22.8316631 C56.5047424,22.5836004 55.391785,22.9313933 54.66,23.74 L54.62,23.74 Z" id="Shape"></path>
            <path d="M39,0 C17.4608948,-7.10542736e-15 -1.77635684e-15,17.4608948 -3.55271368e-15,39 C-7.10542736e-15,60.5391052 17.4608948,78 39,78 C60.5391052,78 78,60.5391052 78,39 C78,17.4608948 60.5391052,7.10542736e-15 39,0 Z M39,72 C20.7746033,72 6,57.2253967 6,39 C6,20.7746033 20.7746033,6 39,6 C57.2253967,6 72,20.7746033 72,39 C72,47.7521442 68.5232243,56.1458233 62.3345238,62.3345238 C56.1458233,68.5232243 47.7521442,72 39,72 Z" id="Shape"></path>
        </g>
    </g>
</svg>