<?xml version="1.0" encoding="UTF-8"?>
<svg width="207px" height="69px" viewBox="0 0 207 69" version="1.1" xmlns="http://www.w3.org/2000/svg" xmlns:xlink="http://www.w3.org/1999/xlink">
    <!-- Generator: Sketch 48.2 (47327) - http://www.bohemiancoding.com/sketch -->
    <title>icon_logo</title>
    <desc>Created with Sketch.</desc>
    <defs></defs>
    <g id="Artboard-6" stroke="none" stroke-width="1" fill="none" fill-rule="evenodd" transform="translate(-84.000000, -339.000000)">
        <g id="icon_logo" transform="translate(84.000000, 339.000000)" fill-rule="nonzero">
            <ellipse id="Oval" fill="#010101" cx="74.6988889" cy="25.3" rx="6.79777778" ry="9.91555556"></ellipse>
            <path d="M70.4822222,43.4955556 L68.2077778,45.0033333 C68.2844444,46.5622222 68.5911111,48.4022222 68.4377778,49.7311111 C68.1822222,51.9033333 66.2144444,58.0111111 66.2144444,58.0111111 C65.6266667,59.1866667 65.3711111,60.5666667 66.4188889,61.4866667 L71.8877778,66.6744444 C70.9933333,64.9622222 72.6544444,63.6333333 74.3922222,64.4 C73.0633333,62.9944444 73.9322222,60.8222222 76.3088889,61.18 L70.0222222,59.1355556 C69.5366667,58.88 70.38,56.58 71.4277778,55.0977778 C72.7311111,53.2577778 74.52,51.0855556 74.52,48.9133333 C74.52,47.5844444 72.4244444,44.39 72.4244444,44.39 L70.4822222,43.4955556 Z M91.0544444,43.0866667 C91.0544444,43.0866667 91.1055556,46.9966667 90.7988889,48.7344444 C90.8244444,48.9644444 86.25,56.2988889 86.25,56.2988889 C85.4322222,57.2955556 84.87,58.5988889 85.6877778,59.7233333 L89.8788889,65.9588889 C89.3677778,64.0933333 91.31,63.1477778 92.8177778,64.2722222 C91.8211111,62.6111111 93.15,60.6688889 95.3988889,61.5377778 L89.7,58.19 C89.2655556,57.8322222 91.1822222,56.0433333 92.5366667,54.8166667 C94.1977778,53.3088889 95.8588889,51.3155556 96.3444444,49.1944444 C96.6511111,47.8911111 96.1144444,44.39 96.1144444,44.39 L91.0544444,43.0866667 Z" id="Shape" stroke="#010101" stroke-width="0.5" fill="#010101"></path>
            <path d="M39.0233333,53.5388889 C39.1511111,53.9477778 38.9211111,54.3822222 38.5377778,54.5866667 L35.1388889,55.9666667 C34.73,56.0944444 34.3211111,55.9411111 34.1933333,55.5322222 L28.4688889,38.6655556 C28.2644444,38.0522222 27.6,37.7711111 27.0122222,38.0266667 L16.1766667,41.8088889 C15.5633333,42.0133333 15.2566667,42.6266667 15.3844444,43.24 L20.9555556,61.5122222 C21.0833333,61.9211111 20.8277778,62.2788889 20.4444444,62.4322222 L16.9688889,63.5566667 C16.56,63.6844444 16.1255556,63.4544444 15.9977778,63.0455556 L0.281111111,13.8511111 C0.153333333,13.4422222 0.408888889,13.0844444 0.792222222,12.9311111 L4.21666667,11.8322222 C4.62555556,11.7044444 5.06,11.9344444 5.18777778,12.3433333 L12.9566667,35.2922222 C13.1611111,35.9055556 13.7744444,36.2122222 14.3622222,35.9566667 L25.07,32.2255556 C25.6833333,32.0211111 25.99,31.4077778 25.7855556,30.82 L17.9655556,6.46555556 C17.8377778,6.05666667 18.0677778,5.62222222 18.4766667,5.49444444 L22.1311111,4.24222222 C22.54,4.11444444 22.9744444,4.34444444 23.1022222,4.75333333 L39.0233333,53.5388889 Z M55.5066667,54.51 C48.3511111,56.0688889 42.8055556,52.1588889 39.4322222,36.6977778 C36.0588889,21.2877778 40.7866667,16.2277778 46.23,15.0266667 C53.1044444,13.5188889 58.3688889,16.7644444 61.5122222,31.2288889 C64.6811111,45.6677778 62.5855556,52.9766667 55.5066667,54.51 Z M47.4566667,19.7288889 C43.8022222,20.5211111 42.1411111,23.7666667 45.0033333,36.8511111 C47.4566667,48.07 50.8044444,50.8555556 54.1777778,50.14 C57.96,49.3222222 59.0844444,45.54 56.6311111,34.3211111 C53.7688889,21.2366667 51.3155556,18.8855556 47.4566667,19.7288889 Z M79.12,49.3733333 C77.3055556,49.5777778 75.5422222,48.99 73.4722222,47.61 C73.4722222,47.61 69.8944444,47.8144444 68.5655556,47.9677778 L63.6333333,11.6788889 C63.6077778,11.3977778 63.8377778,11.0911111 64.1188889,11.0655556 L68.1822222,10.6055556 C68.54,10.5544444 68.77,10.7588889 68.7955556,11.0911111 L69.3322222,15.2055556 C70.9166667,12.3944444 72.6033333,10.9377778 75.1844444,10.6311111 C80.7811111,9.99222222 84.9466667,13.57 86.71,29.1588889 C88.3966667,43.7766667 83.6688889,48.8622222 79.12,49.3733333 Z M74.6222222,16.0233333 C71.8877778,16.33 70.4822222,18.3488889 70.0222222,20.5211111 L72.7055556,41.5533333 C73.5488889,43.2911111 74.8266667,44.6455556 76.9988889,44.39 C81.3944444,43.8788889 82.6977778,40.9144444 81.3944444,29.5677778 C80.3722222,20.5977778 78.89,15.5377778 74.6222222,16.0233333 Z M101.736667,48.1466667 C99.8966667,48.1466667 98.21,47.4055556 96.2933333,45.7955556 L96.2933333,45.6166667 C96.2933333,45.8977778 96.0122222,46.1788889 95.6544444,46.1788889 L91.6422222,46.2044444 C91.2844444,46.2044444 91.0033333,45.9233333 91.0033333,45.6422222 L90.3388889,8.99555556 C90.3388889,8.71444444 90.62,8.43333333 90.9011111,8.43333333 L94.99,8.40777778 C95.3477778,8.40777778 95.5522222,8.61222222 95.5522222,8.97 L95.6544444,13.1355556 C97.5455556,10.4777778 99.36,9.2 101.966667,9.2 C107.588889,9.17444444 111.371111,13.1611111 111.473333,28.8522222 C111.575556,43.5722222 106.311111,48.0955556 101.736667,48.1466667 Z M100.816667,14.49 C98.0822222,14.5155556 96.4722222,16.3555556 95.7822222,18.4766667 L96.2166667,39.6622222 C96.8555556,41.4766667 98.0055556,42.9588889 100.177778,42.9333333 C104.624444,42.9077778 106.208889,40.0711111 106.132222,28.6733333 C106.055556,19.6522222 105.11,14.4644444 100.816667,14.49 Z M119.855556,49.5011111 C119.83,49.91 119.446667,50.3188889 118.961111,50.2933333 L115.511111,50.1144444 C115.025556,50.0888889 114.693333,49.7055556 114.718889,49.22 L117.248889,12.0622222 C117.274444,11.5766667 117.657778,11.2444444 118.143333,11.27 L121.44,11.6533333 C121.848889,11.6788889 122.257778,12.0622222 122.232222,12.5477778 L119.855556,49.5011111 Z M120.162222,6.9 C118.271111,6.77222222 116.84,5.11111111 116.967778,3.22 C117.095556,1.32888889 118.756667,-0.102222222 120.647778,0.0255555556 C122.538889,0.153333333 123.97,1.81444444 123.842222,3.70555556 C123.714444,5.59666667 122.053333,7.02777778 120.162222,6.9 Z M144.107778,49.4755556 C144.056667,49.8844444 143.647778,50.1911111 143.29,50.14 L139.584444,49.6544444 C139.175556,49.6033333 138.92,49.2711111 138.92,48.8366667 L142.267778,23.92 C142.676667,20.7 142.37,18.0166667 139.584444,17.6077778 C136.875556,17.1988889 133.706667,18.86 133.093333,23.4088889 L129.643333,49.5266667 C129.668889,49.8844444 129.26,50.1911111 128.851111,50.1144444 L125.375556,49.6033333 C124.966667,49.5522222 124.66,49.1433333 124.711111,48.7855556 L129.643333,11.1422222 C129.694444,10.7333333 130.026667,10.4777778 130.435556,10.5544444 L133.987778,11.0911111 C134.396667,11.1422222 134.652222,11.4744444 134.575556,11.8833333 L134.115556,15.5122222 C135.827778,13.6211111 138.408889,12.4455556 141.066667,12.8288889 C145.462222,13.4677778 148.426667,16.9177778 147.634444,23.2044444 L144.107778,49.4755556 Z M153.921111,67.62 C147.021111,65.9333333 143.264444,61.3333333 144.465556,56.4266667 C145.053333,54.0244444 146.714444,51.6733333 149.576667,50.8555556 C148.324444,49.4755556 147.787778,47.8144444 148.273333,45.77 C149.218889,41.86 153.333333,41.0422222 153.384444,40.8377778 C153.435556,40.6333333 150.573333,37.4644444 152.617778,29.0566667 C154.866667,19.7544444 159.722222,16.1511111 165.344444,17.5055556 C166.775556,17.8633333 168.027778,18.4511111 169.024444,19.3455556 L172.908889,15.3333333 C173.19,15.0522222 173.624444,15.0777778 173.905556,15.3588889 L175.796667,17.4033333 C176.026667,17.6844444 176.052222,18.1188889 175.771111,18.4 L171.375556,22.77 C172.448889,25.5044444 172.525556,29.1333333 171.426667,33.6566667 C169.228889,42.7544444 164.986667,46.1533333 159.108889,44.7222222 C157.933333,44.4411111 157.243333,44.0577778 156.63,43.9044444 C156.093333,43.7766667 153.64,43.9811111 153.256667,45.54 C152.873333,47.1244444 154.611111,48.9133333 156.042222,49.2711111 C157.473333,49.6288889 159.057778,49.7055556 160.207778,49.9866667 C166.494444,51.52 169.714444,55.2766667 168.385556,60.7966667 C166.954444,66.7766667 161.051111,69.3322222 153.921111,67.62 Z M157.371111,54.6888889 C155.94,54.3311111 154.585556,53.8711111 153.358889,53.36 C151.697778,53.6922222 150.292222,54.6377778 149.755556,56.9122222 C149.04,59.8511111 150.65,61.9211111 154.892222,62.9433333 C159.262222,64.0166667 162.661111,63.4544444 163.504444,60.03 C164.143333,57.1933333 163.044444,56.0688889 157.371111,54.6888889 Z M164.45,22.7188889 C161.792222,22.08 159.364444,24.0222222 157.805556,30.3855556 C156.272222,36.6722222 157.192222,39.2277778 160.003333,39.8922222 C162.405556,40.48 164.858889,38.6911111 166.494444,31.97 C167.951111,25.9388889 166.928889,23.3066667 164.45,22.7188889 Z" id="Shape" fill="#010101"></path>
            <path d="M178.94,54.4588889 C178.888889,54.8422222 178.505556,55.2 178.071111,55.1488889 L174.876667,54.8166667 C174.416667,54.7655556 174.135556,54.3822222 174.186667,53.9477778 L178.454444,19.6777778 C178.505556,19.2177778 178.888889,12.8033333 179.348889,12.8544444 L182.364444,13.3655556 C182.747778,13.4166667 183.105556,13.8 183.054444,14.2344444 L178.94,54.4588889 Z M181.623333,10.4777778 C179.885556,10.2477778 178.633333,8.63777778 178.863333,6.9 C179.093333,5.16222222 180.703333,3.91 182.441111,4.14 C184.178889,4.37 185.431111,5.98 185.201111,7.71777778 C184.996667,9.48111111 183.386667,10.7077778 181.623333,10.4777778 Z M202.732222,54.6377778 C202.681111,55.0211111 202.323333,55.3022222 201.991111,55.2766667 L198.541111,54.9188889 C198.157778,54.8677778 197.927778,54.5866667 197.902222,54.1777778 L200.457778,30.9988889 C200.764444,28.0088889 200.406667,25.53 197.825556,25.2233333 C195.295556,24.9166667 192.407778,26.5266667 191.947778,30.7433333 L189.315556,55.0211111 C189.341111,55.3533333 188.983333,55.6344444 188.6,55.5833333 L185.354444,55.1744444 C184.971111,55.1233333 184.69,54.7655556 184.715556,54.4333333 L188.472222,19.4477778 C188.523333,19.0644444 188.804444,18.8344444 189.187778,18.8855556 L192.484444,19.2944444 C192.867778,19.3455556 193.097778,19.6266667 193.046667,20.01 L192.688889,23.3833333 C194.222222,21.5944444 196.598889,20.4444444 199.077778,20.7511111 C203.166667,21.2622222 206.003333,24.38 205.39,30.2322222 L202.732222,54.6377778 Z" id="Shape" fill="#000000"></path>
            <circle id="Oval" fill="#FFFFFF" transform="translate(77.639146, 25.139749) rotate(-45.000000) translate(-77.639146, -25.139749) " cx="77.6391464" cy="25.1397485" r="3.78222222"></circle>
            <ellipse id="Oval" fill="#010101" cx="99.7944444" cy="23.8177778" rx="6.79777778" ry="9.91555556"></ellipse>
            <circle id="Oval" fill="#FFFFFF" transform="translate(103.857042, 23.995913) rotate(-45.000000) translate(-103.857042, -23.995913) " cx="103.857042" cy="23.9959128" r="3.78222222"></circle>
            <path d="M71.76,44.1344444 L69.4855556,45.6422222 C69.5622222,47.2011111 69.8688889,49.0411111 69.7155556,50.37 C69.46,52.5422222 67.4922222,58.65 67.4922222,58.65 C66.9044444,59.8255556 66.6488889,61.2055556 67.6966667,62.1255556 L73.1655556,67.3133333 C72.2711111,65.6011111 73.9322222,64.2722222 75.67,65.0388889 C74.3411111,63.6333333 75.21,61.4611111 77.5866667,61.8188889 L71.3,59.7744444 C70.8144444,59.5188889 71.6577778,57.2188889 72.7055556,55.7366667 C74.0088889,53.8966667 75.7977778,51.7244444 75.7977778,49.5522222 C75.7977778,48.2233333 73.7022222,45.0288889 73.7022222,45.0288889 L71.76,44.1344444 Z M92.3322222,43.7255556 C92.3322222,43.7255556 92.3833333,47.6355556 92.0766667,49.3733333 C92.1022222,49.6033333 87.5277778,56.9377778 87.5277778,56.9377778 C86.71,57.9344444 86.1477778,59.2377778 86.9655556,60.3622222 L91.1566667,66.5977778 C90.6455556,64.7322222 92.5877778,63.7866667 94.0955556,64.9111111 C93.0988889,63.25 94.4277778,61.3077778 96.6766667,62.1766667 L90.9777778,58.8288889 C90.5433333,58.4711111 92.46,56.6822222 93.8144444,55.4555556 C95.4755556,53.9477778 97.1366667,51.9544444 97.6222222,49.8333333 C97.9288889,48.53 97.3922222,45.0288889 97.3922222,45.0288889 L92.3322222,43.7255556 Z" id="Shape" stroke="#010101" stroke-width="0.5" fill="#FFFFFF"></path>
            <path d="M40.3011111,54.1777778 C40.4288889,54.5866667 40.1988889,55.0211111 39.8155556,55.2255556 L36.4166667,56.6055556 C36.0077778,56.7333333 35.5988889,56.58 35.4711111,56.1711111 L29.7466667,39.3044444 C29.5422222,38.6911111 28.8777778,38.41 28.29,38.6655556 L17.4544444,42.4477778 C16.8411111,42.6522222 16.5344444,43.2655556 16.6622222,43.8788889 L22.2333333,62.1511111 C22.3611111,62.56 22.1055556,62.9177778 21.7222222,63.0711111 L18.2466667,64.1955556 C17.8377778,64.3233333 17.4033333,64.0933333 17.2755556,63.6844444 L1.55888889,14.49 C1.43111111,14.0811111 1.68666667,13.7233333 2.07,13.57 L5.49444444,12.4711111 C5.90333333,12.3433333 6.33777778,12.5733333 6.46555556,12.9822222 L14.2344444,35.9311111 C14.4388889,36.5444444 15.0522222,36.8511111 15.64,36.5955556 L26.3477778,32.8644444 C26.9611111,32.66 27.2677778,32.0466667 27.0633333,31.4588889 L19.2433333,7.10444444 C19.1155556,6.69555556 19.3455556,6.26111111 19.7544444,6.13333333 L23.4088889,4.88111111 C23.8177778,4.75333333 24.2522222,4.98333333 24.38,5.39222222 L40.3011111,54.1777778 Z M56.7844444,55.1488889 C49.6288889,56.7077778 44.0833333,52.7977778 40.71,37.3366667 C37.3366667,21.9266667 42.0644444,16.8666667 47.5077778,15.6655556 C54.3822222,14.1577778 59.6466667,17.4033333 62.79,31.8677778 C65.9588889,46.3066667 63.8633333,53.6155556 56.7844444,55.1488889 Z M48.76,20.3677778 C45.1055556,21.16 43.4444444,24.4055556 46.3066667,37.49 C48.76,48.7088889 52.1077778,51.4944444 55.4811111,50.7788889 C59.2633333,49.9611111 60.3877778,46.1788889 57.9344444,34.96 C55.0722222,21.8755556 52.5933333,19.5244444 48.76,20.3677778 Z M80.3977778,50.0122222 C78.5833333,50.2166667 76.82,49.6288889 74.75,48.2488889 C74.75,48.2488889 71.1722222,48.4533333 69.8433333,48.6066667 L64.9111111,12.3177778 C64.8855556,12.0366667 65.1155556,11.73 65.3966667,11.7044444 L69.46,11.2444444 C69.8177778,11.1933333 70.0477778,11.3977778 70.0733333,11.73 L70.61,15.8444444 C72.1944444,13.0333333 73.8811111,11.5766667 76.4622222,11.27 C82.0588889,10.6311111 86.2244444,14.2088889 87.9877778,29.7977778 C89.7,44.4155556 84.9466667,49.5011111 80.3977778,50.0122222 Z M75.9,16.6622222 C73.1655556,16.9688889 71.76,18.9877778 71.3,21.16 L73.9833333,42.1922222 C74.8266667,43.93 76.1044444,45.2844444 78.2766667,45.0288889 C82.6722222,44.5177778 83.9755556,41.5533333 82.6722222,30.2066667 C81.65,21.2366667 80.1677778,16.1766667 75.9,16.6622222 Z M103.014444,48.7855556 C101.174444,48.7855556 99.4877778,48.0444444 97.5711111,46.4344444 L97.5711111,46.2555556 C97.5711111,46.5366667 97.29,46.8177778 96.9322222,46.8177778 L92.92,46.8433333 C92.5622222,46.8433333 92.2811111,46.5622222 92.2811111,46.2811111 L91.6166667,9.63444444 C91.6166667,9.35333333 91.8977778,9.07222222 92.1788889,9.07222222 L96.2677778,9.04666667 C96.6255556,9.04666667 96.83,9.25111111 96.83,9.60888889 L96.9322222,13.7744444 C98.8233333,11.1677778 100.637778,9.86444444 103.244444,9.86444444 C108.866667,9.83888889 112.648889,13.8255556 112.751111,29.5166667 C112.853333,44.2111111 107.588889,48.7344444 103.014444,48.7855556 Z M102.094444,15.1288889 C99.36,15.1544444 97.75,16.9944444 97.06,19.1155556 L97.4944444,40.3011111 C98.1333333,42.1155556 99.2833333,43.5977778 101.455556,43.5722222 C105.902222,43.5466667 107.486667,40.71 107.41,29.3122222 C107.333333,20.2911111 106.387778,15.1033333 102.094444,15.1288889 Z M121.133333,50.1655556 C121.107778,50.5744444 120.724444,50.9833333 120.238889,50.9577778 L116.788889,50.7788889 C116.303333,50.7533333 115.971111,50.37 115.996667,49.8844444 L118.526667,12.7266667 C118.552222,12.2411111 118.935556,11.9088889 119.421111,11.9344444 L122.717778,12.3177778 C123.126667,12.3433333 123.535556,12.7266667 123.51,13.2122222 L121.133333,50.1655556 Z M121.44,7.53888889 C119.548889,7.41111111 118.117778,5.75 118.245556,3.85888889 C118.373333,1.96777778 120.034444,0.536666667 121.925556,0.664444444 C123.816667,0.792222222 125.247778,2.45333333 125.12,4.34444444 C124.992222,6.23555556 123.331111,7.66666667 121.44,7.53888889 Z M145.385556,50.1144444 C145.334444,50.5233333 144.925556,50.83 144.567778,50.7788889 L140.862222,50.2933333 C140.453333,50.2422222 140.197778,49.91 140.197778,49.4755556 L143.545556,24.5588889 C143.954444,21.3388889 143.647778,18.6555556 140.862222,18.2466667 C138.153333,17.8377778 134.984444,19.4988889 134.371111,24.0477778 L130.921111,50.1655556 C130.946667,50.5233333 130.537778,50.83 130.128889,50.7533333 L126.653333,50.2422222 C126.244444,50.1911111 125.937778,49.7822222 125.988889,49.4244444 L130.921111,11.7811111 C130.972222,11.3722222 131.304444,11.1166667 131.713333,11.1933333 L135.265556,11.73 C135.674444,11.7811111 135.93,12.1133333 135.853333,12.5222222 L135.393333,16.1511111 C137.105556,14.26 139.686667,13.0844444 142.344444,13.4677778 C146.74,14.1066667 149.704444,17.5566667 148.912222,23.8433333 L145.385556,50.1144444 Z M155.224444,68.2588889 C148.324444,66.5722222 144.567778,61.9722222 145.768889,57.0655556 C146.356667,54.6633333 148.017778,52.3122222 150.88,51.4944444 C149.627778,50.1144444 149.091111,48.4533333 149.576667,46.4088889 C150.522222,42.4988889 154.636667,41.6811111 154.687778,41.4766667 C154.738889,41.2722222 151.876667,38.1033333 153.921111,29.6955556 C156.17,20.3933333 161.025556,16.79 166.647778,18.1444444 C168.078889,18.5022222 169.331111,19.09 170.327778,19.9844444 L174.186667,15.9977778 C174.467778,15.7166667 174.902222,15.7422222 175.183333,16.0233333 L177.074444,18.0677778 C177.304444,18.3488889 177.33,18.7833333 177.048889,19.0644444 L172.653333,23.4344444 C173.726667,26.1688889 173.803333,29.7977778 172.704444,34.3211111 C170.506667,43.4188889 166.264444,46.8177778 160.386667,45.3866667 C159.211111,45.1055556 158.521111,44.7222222 157.907778,44.5688889 C157.371111,44.4411111 154.917778,44.6455556 154.534444,46.2044444 C154.151111,47.7888889 155.888889,49.5777778 157.32,49.9355556 C158.751111,50.2933333 160.335556,50.37 161.485556,50.6511111 C167.772222,52.1844444 170.992222,55.9411111 169.663333,61.4611111 C168.232222,67.4411111 162.328889,69.9711111 155.224444,68.2588889 Z M158.648889,55.3277778 C157.217778,54.97 155.863333,54.51 154.636667,53.9988889 C152.975556,54.3311111 151.57,55.2766667 151.033333,57.5511111 C150.317778,60.49 151.927778,62.56 156.17,63.5822222 C160.54,64.6555556 163.938889,64.0933333 164.782222,60.6688889 C165.421111,57.8322222 164.322222,56.7077778 158.648889,55.3277778 Z M165.727778,23.3577778 C163.07,22.7188889 160.642222,24.6611111 159.083333,31.0244444 C157.55,37.3111111 158.47,39.8666667 161.281111,40.5311111 C163.683333,41.1188889 166.136667,39.33 167.772222,32.6088889 C169.228889,26.5777778 168.206667,23.9455556 165.727778,23.3577778 Z" id="Shape" fill="#FFFFFF"></path>
            <path d="M180.217778,55.0977778 C180.166667,55.4811111 179.783333,55.8388889 179.348889,55.7877778 L176.154444,55.4555556 C175.694444,55.4044444 175.413333,55.0211111 175.464444,54.5866667 L179.732222,20.3166667 C179.783333,19.8566667 180.166667,13.4422222 180.626667,13.4933333 L183.642222,14.0044444 C184.025556,14.0555556 184.383333,14.4388889 184.332222,14.8733333 L180.217778,55.0977778 Z M182.901111,11.1166667 C181.163333,10.8866667 179.911111,9.27666667 180.141111,7.53888889 C180.371111,5.80111111 181.981111,4.54888889 183.718889,4.77888889 C185.456667,5.00888889 186.708889,6.61888889 186.478889,8.35666667 C186.274444,10.12 184.664444,11.3466667 182.901111,11.1166667 Z M204.01,55.2766667 C203.958889,55.66 203.601111,55.9411111 203.268889,55.9155556 L199.818889,55.5577778 C199.435556,55.5066667 199.205556,55.2255556 199.18,54.8166667 L201.735556,31.6377778 C202.042222,28.6477778 201.684444,26.1688889 199.103333,25.8622222 C196.573333,25.5555556 193.685556,27.1655556 193.225556,31.3822222 L190.593333,55.66 C190.618889,55.9922222 190.261111,56.2733333 189.877778,56.2222222 L186.632222,55.8133333 C186.248889,55.7622222 185.967778,55.4044444 185.993333,55.0722222 L189.75,20.0866667 C189.801111,19.7033333 190.082222,19.4733333 190.465556,19.5244444 L193.762222,19.9333333 C194.145556,19.9844444 194.375556,20.2655556 194.324444,20.6488889 L193.966667,24.0222222 C195.5,22.2333333 197.876667,21.0833333 200.355556,21.39 C204.444444,21.9011111 207.281111,25.0188889 206.667778,30.8711111 L204.01,55.2766667 Z" id="Shape" fill="#FFFFFF"></path>
            <circle id="Oval" fill="#010101" cx="75.9" cy="21.0322222" r="1.20111111"></circle>
            <circle id="Oval" fill="#010101" cx="102.861111" cy="19.9077778" r="1.20111111"></circle>
            <ellipse id="Oval" fill="#010101" cx="103.525556" cy="28.4944444" rx="1.84" ry="1.68666667"></ellipse>
            <ellipse id="Oval" fill="#010101" cx="78.0466667" cy="29.9766667" rx="1.84" ry="1.68666667"></ellipse>
            <path d="M172.73,62.4322222 C172.73,62.4322222 173.19,62.2022222 173.65,61.9977778 C174.11,61.7933333 174.57,61.5633333 174.57,61.5633333 L174.646667,61.7677778 C174.646667,61.7677778 174.161111,61.9211111 173.675556,62.1 C173.215556,62.2788889 172.73,62.4322222 172.73,62.4322222 Z M176.486667,60.7966667 L178.403333,60.0811111 L178.556667,60.5922222 L176.614444,61.1544444 L176.486667,60.7966667 Z M180.371111,59.4422222 L182.364444,58.9311111 L182.517778,59.6211111 L180.524444,60.0555556 L180.371111,59.4422222 Z M184.408889,58.5477778 L186.427778,58.2922222 L186.53,59.0588889 L184.485556,59.2888889 L184.408889,58.5477778 Z M188.523333,58.2155556 L190.567778,58.2922222 L190.542222,59.0077778 L188.497778,58.9566667 L188.523333,58.2155556 Z M192.663333,58.5222222 C192.663333,58.5222222 193.174444,58.6244444 193.66,58.7011111 C194.171111,58.8033333 194.656667,58.9055556 194.656667,58.9055556 L194.554444,59.4933333 L193.532222,59.34 L192.51,59.1866667 L192.663333,58.5222222 Z M196.675556,59.4166667 C196.675556,59.4166667 197.161111,59.57 197.646667,59.6977778 C198.132222,59.8511111 198.617778,59.9788889 198.617778,59.9788889 L198.541111,60.2855556 C198.541111,60.2855556 198.03,60.1833333 197.544444,60.0811111 C197.033333,59.9788889 196.547778,59.8511111 196.547778,59.8511111 L196.675556,59.4166667 Z M200.585556,60.6433333 L201.531111,60.9755556 L200.534444,60.7711111 L200.585556,60.6433333 Z" id="Shape" fill="#FFFFFF"></path>
        </g>
    </g>
</svg>