<?xml version="1.0" encoding="UTF-8"?>
<svg width="25px" height="17px" viewBox="0 0 25 17" version="1.1" xmlns="http://www.w3.org/2000/svg" xmlns:xlink="http://www.w3.org/1999/xlink">
    <!-- Generator: Sketch 48.2 (47327) - http://www.bohemiancoding.com/sketch -->
    <title>icon_hamburgerMenu</title>
    <desc>Created with Sketch.</desc>
    <defs></defs>
    <g id="Artboard-6" stroke="none" stroke-width="1" fill="none" fill-rule="evenodd" transform="translate(-10.000000, -76.000000)">
        <g id="icon_hamburgerMenu" transform="translate(10.000000, 76.000000)" fill="#343434">
            <path d="M23.8925597,0.00333333333 C23.982882,0.0133333333 24.006269,0.0133333333 24.0949784,0.032 C24.3272356,0.082 24.5393317,0.19 24.6982021,0.339333333 C24.7885244,0.424666667 24.8619112,0.522 24.9127175,0.627333333 C24.9635238,0.732 24.9925559,0.844666667 24.9990075,0.957333333 C25.0175558,1.33133333 24.7748147,1.69066667 24.3804613,1.87333333 C24.2603004,1.928 24.1296557,1.96666667 23.9949787,1.98533333 C23.9046564,1.99866667 23.8812694,1.99666667 23.7901407,2 L1.2095731,2 C1.11844438,1.99666667 1.09505736,1.99866667 1.00554154,1.98533333 C0.768445583,1.952 0.545865702,1.85933333 0.372479201,1.722 C0.273285993,1.64333333 0.191028211,1.55133333 0.129738099,1.45 C0.0676415384,1.34933333 0.0273190963,1.23933333 0.00957722177,1.12733333 C-0.0388097088,0.815333333 0.0982865945,0.495333333 0.372479201,0.278 C0.446672495,0.219333333 0.529736725,0.168666667 0.619252547,0.126666667 C0.739413425,0.072 0.870058137,0.0333333333 1.00554154,0.0146666667 C1.09505736,0.00133333333 1.11844438,0.00333333333 1.2095731,0 L23.7901407,0 C23.8240115,0.00133333333 23.8586888,0.00266666667 23.8925597,0.00333333333 Z" id="Shape"></path>
            <path d="M23.8941185,8.00333333 C23.9844463,8.01333333 24.0078348,8.01333333 24.0965496,8.032 C24.328821,8.082 24.54093,8.19 24.6998101,8.33933333 C24.7901379,8.42466667 24.8635292,8.522 24.9143386,8.62733333 C25.0828967,8.974 24.9982144,9.38 24.6998101,9.66066667 C24.6094823,9.746 24.5014116,9.818 24.3820499,9.87333333 C24.2618817,9.928 24.131229,9.96666667 23.9965438,9.98533333 C23.906216,9.99866667 23.8828276,9.99666667 23.7916933,10 L1.20974712,10 C1.11861283,9.99666667 1.09522439,9.99866667 1.0057031,9.98533333 C0.870211426,9.96666667 0.739558737,9.928 0.619390524,9.87333333 C0.287919814,9.71933333 0.0580678616,9.43866667 0.00967797693,9.12733333 C-0.00322599231,9.04266667 -0.00322599231,8.95733333 0.00967797693,8.87266667 C0.0274209346,8.76066667 0.0677458385,8.65066667 0.12984619,8.55 C0.191140044,8.44866667 0.273402848,8.35666667 0.372602112,8.278 C0.545999199,8.14066667 0.768592668,8.048 1.0057031,8.01466667 C1.09522439,8.00133333 1.11861283,8.00333333 1.20974712,8 L23.7916933,8 C23.8255662,8.00133333 23.8602456,8.00266667 23.8941185,8.00333333 Z" id="Shape"></path>
            <path d="M23.8940832,15.0033333 C23.9844138,15.0133333 24.007803,15.0133333 24.0965207,15.032 C24.3287995,15.082 24.5409153,15.19 24.6998005,15.3393333 C24.9982144,15.62 25.0828994,16.026 24.9143359,16.3726667 C24.8635249,16.478 24.7901312,16.5753333 24.6998005,16.6606667 C24.6094698,16.746 24.5013956,16.818 24.3820301,16.8733333 C24.2618581,16.928 24.1312012,16.9666667 23.9965117,16.9853333 C23.906181,16.9986667 23.8827918,16.9966667 23.7916546,17 L1.20898613,17 C1.11784893,16.9966667 1.09445974,16.9986667 1.00493559,16.9853333 C0.767817573,16.952 0.545216983,16.8593333 0.37181435,16.722 C0.297614153,16.6633333 0.233092243,16.5966667 0.179055144,16.524 C-0.0209627775,16.2566667 -0.0556433041,15.9186667 0.0863048979,15.6273333 C0.137922426,15.522 0.210509575,15.4246667 0.300840249,15.3393333 C0.391170923,15.254 0.499245122,15.182 0.618610656,15.1266667 C0.738782713,15.072 0.869439581,15.0333333 1.00493559,15.0146667 C1.09445974,15.0013333 1.11784893,15.0033333 1.20898613,15 L23.7916546,15 C23.8255286,15.0013333 23.8602092,15.0026667 23.8940832,15.0033333 Z" id="Shape"></path>
        </g>
    </g>
</svg>