<?xml version="1.0" encoding="UTF-8"?>
<svg width="15px" height="15px" viewBox="0 0 15 15" version="1.1" xmlns="http://www.w3.org/2000/svg" xmlns:xlink="http://www.w3.org/1999/xlink">
    <!-- Generator: Sketch 48.2 (47327) - http://www.bohemiancoding.com/sketch -->
    <title>Shape</title>
    <desc>Created with Sketch.</desc>
    <defs></defs>
    <g id="001_daycare_home-copy-9" stroke="none" stroke-width="1" fill="none" fill-rule="evenodd" transform="translate(-346.000000, -35.000000)">
        <path d="M346.481761,49.4944489 C346.81483,49.8275178 347.243061,49.9940523 347.671293,49.9940523 C348.099524,49.9940523 348.527756,49.8275178 348.860825,49.4944489 L353.5,44.8552736 L358.139175,49.4944489 C358.472244,49.8275178 358.900476,49.9940523 359.328707,49.9940523 C359.756939,49.9940523 360.18517,49.8275178 360.518239,49.4944489 C361.160587,48.8521015 361.160587,47.7815226 360.518239,47.1391753 L355.855274,42.5 L360.518239,37.8370341 C361.160587,37.1946868 361.160587,36.1241079 360.518239,35.4817605 C359.875892,34.8394132 358.805313,34.8394132 358.162966,35.4817605 L353.5,40.1447264 L348.860825,35.5055511 C348.218477,34.8632038 347.147898,34.8632038 346.505551,35.5055511 C345.863204,36.1478985 345.863204,37.2184774 346.505551,37.8608247 L351.144726,42.5 L346.481761,47.1629659 C345.839413,47.8053132 345.839413,48.8521015 346.481761,49.4944489 Z" id="Shape" fill="#5F5F5F" fill-rule="nonzero"></path>
    </g>
</svg>