<?xml version="1.0" encoding="UTF-8"?>
<svg width="26px" height="18px" viewBox="0 0 26 18" version="1.1" xmlns="http://www.w3.org/2000/svg" xmlns:xlink="http://www.w3.org/1999/xlink">
    <!-- Generator: Sketch 48.2 (47327) - http://www.bohemiancoding.com/sketch -->
    <title>navbar</title>
    <desc>Created with Sketch.</desc>
    <defs></defs>
    <g id="Artboard-6" stroke="none" stroke-width="1" fill="none" fill-rule="evenodd" transform="translate(-89.000000, -82.000000)">
        <g id="navbar" transform="translate(89.000000, 82.000000)" fill="#079247">
            <path d="M24.4781875,0.413181818 C24.5691875,0.425454545 24.59275,0.425454545 24.682125,0.448363636 C24.916125,0.509727273 25.1298125,0.642272727 25.289875,0.825545455 C25.380875,0.930272727 25.4548125,1.04972727 25.506,1.179 C25.5571875,1.30745455 25.5864375,1.44572727 25.5929375,1.584 C25.611625,2.043 25.3670625,2.484 24.96975,2.70818182 C24.8486875,2.77527273 24.7170625,2.82272727 24.581375,2.84563636 C24.490375,2.862 24.4668125,2.85954545 24.375,2.86363636 L1.625,2.86363636 C1.5331875,2.85954545 1.509625,2.862 1.4194375,2.84563636 C1.1805625,2.80472727 0.9563125,2.691 0.781625,2.52245455 C0.6816875,2.42590909 0.5988125,2.313 0.5370625,2.18863636 C0.4745,2.06509091 0.433875,1.93009091 0.416,1.79263636 C0.36725,1.40972727 0.505375,1.017 0.781625,0.750272727 C0.856375,0.678272727 0.9400625,0.616090909 1.03025,0.564545455 C1.1513125,0.497454545 1.2829375,0.45 1.4194375,0.427090909 C1.509625,0.410727273 1.5331875,0.413181818 1.625,0.409090909 L24.375,0.409090909 C24.409125,0.410727273 24.4440625,0.412363636 24.4781875,0.413181818 Z" id="Shape"></path>
            <path d="M24.4781875,7.77681818 C24.5691875,7.78909091 24.59275,7.78909091 24.682125,7.812 C24.916125,7.87336364 25.1298125,8.00590909 25.289875,8.18918182 C25.380875,8.29390909 25.4548125,8.41336364 25.506,8.54263636 C25.6758125,8.96809091 25.5905,9.46636364 25.289875,9.81081818 C25.198875,9.91554545 25.09,10.0039091 24.96975,10.0718182 C24.8486875,10.1389091 24.7170625,10.1863636 24.581375,10.2092727 C24.490375,10.2256364 24.4668125,10.2231818 24.375,10.2272727 L1.625,10.2272727 C1.5331875,10.2231818 1.509625,10.2256364 1.4194375,10.2092727 C1.2829375,10.1863636 1.1513125,10.1389091 1.03025,10.0718182 C0.6963125,9.88281818 0.46475,9.53836364 0.416,9.15627273 C0.403,9.05236364 0.403,8.94763636 0.416,8.84372727 C0.433875,8.70627273 0.4745,8.57127273 0.5370625,8.44772727 C0.5988125,8.32336364 0.6816875,8.21045455 0.781625,8.11390909 C0.9563125,7.94536364 1.1805625,7.83163636 1.4194375,7.79072727 C1.509625,7.77436364 1.5331875,7.77681818 1.625,7.77272727 L24.375,7.77272727 C24.409125,7.77436364 24.4440625,7.776 24.4781875,7.77681818 Z" id="Shape"></path>
            <path d="M24.4781875,15.1404545 C24.5691875,15.1527273 24.59275,15.1527273 24.682125,15.1756364 C24.916125,15.237 25.1298125,15.3695455 25.289875,15.5528182 C25.5905,15.8972727 25.6758125,16.3955455 25.506,16.821 C25.4548125,16.9502727 25.380875,17.0697273 25.289875,17.1744545 C25.198875,17.2791818 25.09,17.3675455 24.96975,17.4354545 C24.8486875,17.5025455 24.7170625,17.55 24.581375,17.5729091 C24.490375,17.5892727 24.4668125,17.5868182 24.375,17.5909091 L1.625,17.5909091 C1.5331875,17.5868182 1.509625,17.5892727 1.4194375,17.5729091 C1.1805625,17.532 0.9563125,17.4182727 0.781625,17.2497273 C0.706875,17.1777273 0.641875,17.0959091 0.5874375,17.0067273 C0.3859375,16.6786364 0.351,16.2638182 0.494,15.9062727 C0.546,15.777 0.619125,15.6575455 0.710125,15.5528182 C0.801125,15.4480909 0.91,15.3597273 1.03025,15.2918182 C1.1513125,15.2247273 1.2829375,15.1772727 1.4194375,15.1543636 C1.509625,15.138 1.5331875,15.1404545 1.625,15.1363636 L24.375,15.1363636 C24.409125,15.138 24.4440625,15.1396364 24.4781875,15.1404545 Z" id="Shape"></path>
        </g>
    </g>
</svg>