<?xml version="1.0" encoding="UTF-8"?>
<svg width="27px" height="29px" viewBox="0 0 27 29" version="1.1" xmlns="http://www.w3.org/2000/svg" xmlns:xlink="http://www.w3.org/1999/xlink">
    <!-- Generator: Sketch 48.2 (47327) - http://www.bohemiancoding.com/sketch -->
    <title>icon_notification</title>
    <desc>Created with Sketch.</desc>
    <defs></defs>
    <g id="Artboard-6" stroke="none" stroke-width="1" fill="none" fill-rule="evenodd" transform="translate(-338.000000, -31.000000)">
        <g id="icon_notification" transform="translate(338.000000, 31.000000)">
            <g id="Group" fill="#5F5F5F" fill-rule="nonzero">
                <path d="M12.5,0.143887671 C11.173625,0.143887671 10.0806452,1.2206974 10.0806452,2.52744932 L10.0806452,3.63232945 C5.90529032,4.68991973 2.82258065,8.41114808 2.82258065,12.8562005 L2.82258065,20.0069014 C1.27281855,20.0069014 0,21.2608932 0,22.7877233 C0,24.3145534 1.27281855,25.5685452 2.82258065,25.5685452 L9.67741935,25.5685452 L9.67741935,25.9658055 C9.67741935,27.4926356 10.9502379,28.7466274 12.5,28.7466274 C14.0497621,28.7466274 15.3225806,27.4926356 15.3225806,25.9658055 L15.3225806,25.5685452 L22.1774194,25.5685452 C23.7271815,25.5685452 25,24.3145534 25,22.7877233 C25,21.2608932 23.7271815,20.0069014 22.1774194,20.0069014 L22.1774194,12.8562005 C22.1774194,8.41114808 19.0947097,4.68991973 14.9193548,3.63232945 L14.9193548,2.52744932 C14.9193548,1.2206974 13.826375,0.143887671 12.5,0.143887671 Z M12.5,1.73292877 C12.9607218,1.73292877 13.3064516,2.07353973 13.3064516,2.52744932 L13.3064516,3.35921301 C13.0420766,3.33788014 12.7699879,3.32198973 12.5,3.32198973 C12.2300121,3.32198973 11.9579234,3.33791986 11.6935484,3.35921301 L11.6935484,2.52746918 C11.6935484,2.07355959 12.0392782,1.73294863 12.5,1.73294863 L12.5,1.73292877 Z M12.5,4.91101096 C16.9816895,4.91101096 20.5645161,8.44083137 20.5645161,12.8562005 L20.5645161,20.8014219 C20.5645606,21.2402053 20.9255953,21.5958986 21.3709677,21.5959425 L22.1774194,21.5959425 C22.8615282,21.5959425 23.3870968,22.1137315 23.3870968,22.7877233 C23.3870968,23.4617151 22.8615282,23.9795041 22.1774194,23.9795041 L2.82258065,23.9795041 C2.13847177,23.9795041 1.61290323,23.4617151 1.61290323,22.7877233 C1.61290323,22.1137315 2.13847177,21.5959425 2.82258065,21.5959425 L3.62903226,21.5959425 C4.07440475,21.5958986 4.43543936,21.2402053 4.43548387,20.8014219 L4.43548387,12.8562005 C4.43548387,8.44083137 8.01831048,4.91101096 12.5,4.91101096 Z M11.2903226,25.5685452 L13.7096774,25.5685452 L13.7096774,25.9658055 C13.7096774,26.6397973 13.1841089,27.1575863 12.5,27.1575863 C11.8158911,27.1575863 11.2903226,26.6397973 11.2903226,25.9658055 L11.2903226,25.5685452 Z" id="Shape"></path>
            </g>
            <g id="Group-7" transform="translate(13.000000, 14.000000)">
                <circle id="Oval-3" fill="#F08700" cx="6.8" cy="6.8" r="6.8"></circle>
                <text id="3" font-family="Lato-Semibold, Lato" font-size="9.6" font-weight="500" fill="#FFFFFF">
                    <tspan x="4.016" y="9.8">3</tspan>
                </text>
            </g>
        </g>
    </g>
</svg>