<?xml version="1.0" encoding="UTF-8"?>
<svg width="15px" height="15px" viewBox="0 0 15 15" version="1.1" xmlns="http://www.w3.org/2000/svg" xmlns:xlink="http://www.w3.org/1999/xlink">
    <!-- Generator: Sketch 48.2 (47327) - http://www.bohemiancoding.com/sketch -->
    <title>icon_delete</title>
    <desc>Created with Sketch.</desc>
    <defs></defs>
    <g id="Artboard-6" stroke="none" stroke-width="1" fill="none" fill-rule="evenodd" transform="translate(-326.000000, -214.000000)">
        <path d="M326.481761,228.494449 C326.81483,228.827518 327.243061,228.994052 327.671293,228.994052 C328.099524,228.994052 328.527756,228.827518 328.860825,228.494449 L333.5,223.855274 L338.139175,228.494449 C338.472244,228.827518 338.900476,228.994052 339.328707,228.994052 C339.756939,228.994052 340.18517,228.827518 340.518239,228.494449 C341.160587,227.852102 341.160587,226.781523 340.518239,226.139175 L335.855274,221.5 L340.518239,216.837034 C341.160587,216.194687 341.160587,215.124108 340.518239,214.481761 C339.875892,213.839413 338.805313,213.839413 338.162966,214.481761 L333.5,219.144726 L328.860825,214.505551 C328.218477,213.863204 327.147898,213.863204 326.505551,214.505551 C325.863204,215.147898 325.863204,216.218477 326.505551,216.860825 L331.144726,221.5 L326.481761,226.162966 C325.839413,226.805313 325.839413,227.852102 326.481761,228.494449 Z" id="icon_delete" fill="#D33F49" fill-rule="nonzero"></path>
    </g>
</svg>