<?xml version="1.0" encoding="UTF-8"?>
<svg width="27px" height="38px" viewBox="0 0 27 38" version="1.1" xmlns="http://www.w3.org/2000/svg" xmlns:xlink="http://www.w3.org/1999/xlink">
    <!-- Generator: Sketch 48.2 (47327) - http://www.bohemiancoding.com/sketch -->
    <title>Group 5</title>
    <desc>Created with Sketch.</desc>
    <defs></defs>
    <g id="Artboard-6" stroke="none" stroke-width="1" fill="none" fill-rule="evenodd" transform="translate(-1039.000000, -539.000000)">
        <g id="Group-5" transform="translate(1039.000000, 539.000000)" fill="#5F5F5F">
            <text id="Settings" font-family="Lato-Regular, Lato" font-size="7" font-weight="normal" letter-spacing="0.474827588">
                <tspan x="0.306267237" y="36">Settings</tspan>
            </text>
            <g id="settings-icon" transform="translate(1.000000, 0.000000)" fill-rule="nonzero">
                <path d="M10.5813953,0 L9.75943256,3.5617716 C9.36755814,3.69637293 8.98442093,3.85382402 8.61627907,4.0341551 L5.51744186,2.09738275 L2.09738372,5.51743929 L4.03417209,8.61628716 C3.85380465,8.98442884 3.69641395,9.36753564 3.56175814,9.75944011 L0,10.5814025 L0,15.4186096 L3.56175814,16.2405417 C3.69638372,16.6324462 3.85380465,17.0155832 4.03417209,17.3837249 L2.09738372,20.4825607 L5.51744186,23.9026173 L8.61627907,21.9658298 C8.98442093,22.1461669 9.36755814,22.303618 9.75943256,22.4382133 L10.5813953,26 L15.4186047,26 L16.2405674,22.4382133 C16.6324419,22.303618 17.0155791,22.1461669 17.3837209,21.9658298 L20.4825581,23.9026173 L23.9026163,20.4825607 L21.9658279,17.3837249 C22.1461953,17.0155832 22.303586,16.6324462 22.4382419,16.2405417 L26,15.4186096 L26,10.5814025 L22.4382419,9.75944011 C22.3036163,9.36753564 22.1461953,8.98442884 21.9658279,8.61628716 L23.9026163,5.51743929 L20.4825581,2.09738275 L17.3837209,4.0341551 C17.0155791,3.85382402 16.6324419,3.69637293 16.2405674,3.5617716 L15.4186047,0 L10.5813953,0 Z M13,6.95348514 C16.3393977,6.95348514 19.0465116,9.66057969 19.0465116,13.000006 C19.0465116,16.3393719 16.3393977,19.0465149 13,19.0465149 C9.66060233,19.0465149 6.95348837,16.3393719 6.95348837,13.000006 C6.95348837,9.66054946 9.66060233,6.95348514 13,6.95348514 Z" id="Shape"></path>
            </g>
        </g>
    </g>
</svg>