<?xml version="1.0" encoding="UTF-8"?>
<svg width="61px" height="38px" viewBox="0 0 61 38" version="1.1" xmlns="http://www.w3.org/2000/svg" xmlns:xlink="http://www.w3.org/1999/xlink">
    <!-- Generator: Sketch 48.2 (47327) - http://www.bohemiancoding.com/sketch -->
    <title>Group 3</title>
    <desc>Created with Sketch.</desc>
    <defs></defs>
    <g id="Artboard-6" stroke="none" stroke-width="1" fill="none" fill-rule="evenodd" transform="translate(-914.000000, -648.000000)">
        <g id="Group-3" transform="translate(914.000000, 648.000000)" fill="#5F5F5F">
            <text id="Spots-&amp;-Bookings" font-family="Lato-Regular, Lato" font-size="7" font-weight="normal" letter-spacing="0.474827588">
                <tspan x="0.260129299" y="36">Spots &amp; Bookings</tspan>
            </text>
            <g id="if_calendar_115762-copy" transform="translate(18.000000, 0.000000)" fill-rule="nonzero">
                <path d="M23.833875,2.4375 L20.3125,2.4375 L20.3125,0.8125 C20.3125,0.3631875 19.9493125,0 19.5,0 C19.0506875,0 18.6875,0.3631875 18.6875,0.8125 L18.6875,2.4375 L13.8125,2.4375 L13.8125,0.8125 C13.8125,0.3631875 13.4485,0 13,0 C12.5515,0 12.1875,0.3631875 12.1875,0.8125 L12.1875,2.4375 L7.3125,2.4375 L7.3125,0.8125 C7.3125,0.3631875 6.9485,0 6.5,0 C6.0515,0 5.6875,0.3631875 5.6875,0.8125 L5.6875,2.4375 L2.1669375,2.4375 C0.970125,2.4375 0,3.4068125 0,4.603625 L0,23.8330625 C0,25.029875 0.970125,26 2.1669375,26 L23.833875,26 C25.0306875,26 26,25.029875 26,23.8330625 L26,4.603625 C26,3.4068125 25.0306875,2.4375 23.833875,2.4375 Z M24.375,23.8330625 C24.375,24.1320625 24.1320625,24.375 23.833875,24.375 L2.1669375,24.375 C1.8679375,24.375 1.625,24.1320625 1.625,23.8330625 L1.625,4.603625 C1.625,4.3054375 1.8679375,4.0625 2.1669375,4.0625 L5.6875,4.0625 L5.6875,5.6875 C5.6875,6.1368125 6.0515,6.5 6.5,6.5 C6.9485,6.5 7.3125,6.1368125 7.3125,5.6875 L7.3125,4.0625 L12.1875,4.0625 L12.1875,5.6875 C12.1875,6.1368125 12.5515,6.5 13,6.5 C13.4485,6.5 13.8125,6.1368125 13.8125,5.6875 L13.8125,4.0625 L18.6875,4.0625 L18.6875,5.6875 C18.6875,6.1368125 19.0506875,6.5 19.5,6.5 C19.9493125,6.5 20.3125,6.1368125 20.3125,5.6875 L20.3125,4.0625 L23.833875,4.0625 C24.1320625,4.0625 24.375,4.3054375 24.375,4.603625 L24.375,23.8330625 Z" id="Shape"></path>
                <rect id="Rectangle-path" x="5.6875" y="9.75" width="3.25" height="2.4375"></rect>
                <rect id="Rectangle-path" x="5.6875" y="13.8125" width="3.25" height="2.4375"></rect>
                <rect id="Rectangle-path" x="5.6875" y="17.875" width="3.25" height="2.4375"></rect>
                <rect id="Rectangle-path" x="11.375" y="17.875" width="3.25" height="2.4375"></rect>
                <rect id="Rectangle-path" x="11.375" y="13.8125" width="3.25" height="2.4375"></rect>
                <rect id="Rectangle-path" x="11.375" y="9.75" width="3.25" height="2.4375"></rect>
                <rect id="Rectangle-path" x="17.0625" y="17.875" width="3.25" height="2.4375"></rect>
                <rect id="Rectangle-path" x="17.0625" y="13.8125" width="3.25" height="2.4375"></rect>
                <rect id="Rectangle-path" x="17.0625" y="9.75" width="3.25" height="2.4375"></rect>
            </g>
        </g>
    </g>
</svg>