<?xml version="1.0" encoding="UTF-8"?>
<svg width="25px" height="25px" viewBox="0 0 25 25" version="1.1" xmlns="http://www.w3.org/2000/svg" xmlns:xlink="http://www.w3.org/1999/xlink">
    <!-- Generator: Sketch 48.2 (47327) - http://www.bohemiancoding.com/sketch -->
    <title>icon_info</title>
    <desc>Created with Sketch.</desc>
    <defs></defs>
    <g id="Artboard-6" stroke="none" stroke-width="1" fill="none" fill-rule="evenodd" transform="translate(-240.000000, -92.000000)">
        <g id="icon_info" transform="translate(240.000000, 92.000000)" fill="#FFFFFF" fill-rule="nonzero">
            <path d="M14.0272277,19.1980198 L10.7252475,19.1980198 L10.7252475,11.029703 L14.0272277,11.029703 L14.0272277,19.1980198 Z M12.3762376,9.66584158 C11.3769303,9.66584158 10.5668317,8.85574295 10.5668317,7.85643564 C10.5668317,6.85712834 11.3769303,6.0470297 12.3762376,6.0470297 C13.3755449,6.0470297 14.1856436,6.85712834 14.1856436,7.85643564 C14.1856436,8.85574295 13.3755449,9.66584158 12.3762376,9.66584158 Z" id="Shape"></path>
            <path d="M21.1287129,3.87128713 C17.5891524,0.331658751 12.2658933,-0.727243116 7.64118113,1.18834941 C3.01646895,3.10394194 0.00106977342,7.6167823 0.00106977342,12.6225248 C0.00106977342,17.6282672 3.01646895,22.1411076 7.64118113,24.0567001 C12.2658933,25.9722926 17.5891524,24.9133908 21.1287129,21.3737624 C23.4594085,19.0579625 24.7700392,15.9081101 24.7700392,12.6225248 C24.7700392,9.33693938 23.4594085,6.187087 21.1287129,3.87128713 Z M19.759901,20.0074257 C15.6660371,23.9899373 9.13224561,23.9448974 5.09367411,19.9063259 C1.0551026,15.8677544 1.01006271,9.33396288 4.99257426,5.24009901 C6.95107321,3.28131578 9.60753845,2.18085892 12.3774752,2.18085892 C15.147412,2.18085892 17.8038773,3.28131578 19.7623762,5.24009901 C23.8390294,9.31889406 23.8379213,15.9299975 19.759901,20.0074257 Z" id="Shape"></path>
            <circle id="Oval" cx="12.3762376" cy="7.85643564" r="1.80940594"></circle>
            <rect id="Rectangle-path" x="10.7252475" y="11.0321782" width="3.30445545" height="8.16584158"></rect>
        </g>
    </g>
</svg>