<?xml version="1.0" encoding="UTF-8"?>
<svg width="42px" height="37px" viewBox="0 0 42 37" version="1.1" xmlns="http://www.w3.org/2000/svg" xmlns:xlink="http://www.w3.org/1999/xlink">
    <!-- Generator: Sketch 48.2 (47327) - http://www.bohemiancoding.com/sketch -->
    <title>Group 4</title>
    <desc>Created with Sketch.</desc>
    <defs></defs>
    <g id="Artboard-6" stroke="none" stroke-width="1" fill="none" fill-rule="evenodd" transform="translate(-892.000000, -539.000000)">
        <g id="Group-4" transform="translate(892.000000, 539.000000)" fill="#5F5F5F">
            <text id="My-Children" font-family="Lato-Regular, Lato" font-size="7" font-weight="normal" letter-spacing="0.474827588">
                <tspan x="0.144198268" y="35">My Children</tspan>
            </text>
            <g id="Group" transform="translate(7.000000, 0.000000)" fill-rule="nonzero">
                <path d="M9.90833333,14.21875 C10.3513889,14.340625 10.7944444,14.096875 10.9958333,13.690625 L13.05,8.734375 L13.4527778,12.553125 C13.4930556,12.8375 13.4527778,13.08125 13.3722222,13.365625 L11.5597222,18.93125 C11.4791667,19.175 11.6402778,19.378125 11.8819444,19.378125 L13.05,19.378125 C13.2111111,19.378125 13.3722222,19.5 13.4125,19.6625 L14.3791667,25.471875 C14.4194444,25.634375 14.5402778,25.75625 14.7416667,25.75625 L16.4333333,25.75625 C16.5944444,25.75625 16.7555556,25.634375 16.7958333,25.471875 L17.7625,19.6625 C17.8027778,19.5 17.9236111,19.378125 18.125,19.378125 L19.2930556,19.378125 C19.5347222,19.378125 19.6958333,19.134375 19.6152778,18.93125 L17.8027778,13.365625 C17.7222222,13.121875 17.6819444,12.8375 17.7222222,12.553125 L18.125,8.734375 L20.1791667,13.73125 C20.3,14.05625 20.6625,14.259375 20.9847222,14.259375 C21.1055556,14.259375 21.2263889,14.21875 21.3069444,14.178125 C21.75,13.975 21.9513889,13.4875 21.7902778,13 L19.1722222,6.58125 C19.0513889,6.25625 18.7291667,6.053125 18.3666667,6.053125 C18.2458333,6.053125 18.125,6.09375 18.0041667,6.175 C17.3194444,6.621875 16.5138889,6.865625 15.6277778,6.865625 C14.7819444,6.865625 13.9361111,6.621875 13.2513889,6.175 C13.1305556,6.09375 13.0097222,6.053125 12.8888889,6.053125 C12.5263889,6.053125 12.2041667,6.25625 12.0833333,6.58125 L9.46527778,13 C9.18333333,13.528125 9.425,14.05625 9.90833333,14.21875 Z" id="Shape"></path>
                <ellipse id="Oval" cx="15.5472222" cy="2.884375" rx="2.57777778" ry="2.6"></ellipse>
                <ellipse id="Oval" cx="4.39027778" cy="2.884375" rx="2.57777778" ry="2.6"></ellipse>
                <path d="M6.84722222,6.09375 L6.00138889,6.09375 L4.39027778,8.45 L2.77916667,6.09375 L1.93333333,6.09375 C0.966666667,6.09375 0.161111111,6.90625 0.161111111,7.88125 L0.161111111,15.51875 C0.161111111,16.4125 0.845833333,17.184375 1.69166667,17.265625 L2.45694444,25.26875 C2.49722222,25.553125 2.69861111,25.75625 2.98055556,25.75625 L5.8,25.75625 C6.08194444,25.75625 6.28333333,25.553125 6.32361111,25.26875 L7.08888889,17.265625 C7.93472222,17.14375 8.61944444,16.4125 8.61944444,15.51875 L8.61944444,7.840625 C8.57916667,6.865625 7.81388889,6.09375 6.84722222,6.09375 Z" id="Shape"></path>
                <ellipse id="Oval" cx="25.8986111" cy="9.9125" rx="1.8125" ry="1.828125"></ellipse>
                <path d="M24.0458333,20.028125 L24.5694444,25.390625 C24.5694444,25.59375 24.7305556,25.715625 24.9319444,25.715625 L26.8652778,25.715625 C27.0666667,25.715625 27.2277778,25.553125 27.2277778,25.390625 L27.7513889,20.028125 C28.3555556,19.946875 28.8388889,19.41875 28.8388889,18.809375 L28.8388889,13.528125 C28.8388889,12.8375 28.275,12.309375 27.6305556,12.309375 L24.2069444,12.309375 C23.5222222,12.309375 22.9986111,12.878125 22.9986111,13.528125 L22.9986111,18.809375 C22.9986111,19.459375 23.4819444,19.946875 24.0458333,20.028125 Z" id="Shape"></path>
            </g>
        </g>
    </g>
</svg>